<svg
        width="118"
        height="42"
        viewBox="0 0 118 42"
        fill="white"
        xmlns="http://www.w3.org/2000/svg"
        data-tt="Icons_TikTokLogo_svg"
      >
        <g clip-path="url(#clip0_212_6970)" data-tt="Icons_TikTokLogo_g">
          <path
            d="M9.87537 16.842V15.7233C9.49211 15.6721 9.10246 15.6401 8.70003 15.6401C3.90288 15.6338 0 19.5399 0 24.3475C0 27.2947 1.46917 29.9031 3.71764 31.4822C2.26763 29.9287 1.37974 27.8381 1.37974 25.5494C1.37974 20.8121 5.17403 16.9507 9.87537 16.842Z"
            fill="#25F4EE"
            data-tt="Icons_TikTokLogo_path"
          ></path>
          <path
            d="M10.0866 29.5259C12.2265 29.5259 13.9767 27.8189 14.0533 25.6964L14.0597 6.7282H17.5219C17.4516 6.33823 17.4133 5.93546 17.4133 5.52631H12.6864L12.68 24.4945C12.6033 26.617 10.8531 28.324 8.71323 28.324C8.04891 28.324 7.42292 28.1578 6.86719 27.8637C7.58261 28.8674 8.75794 29.5259 10.0866 29.5259Z"
            fill="#25F4EE"
            data-tt="Icons_TikTokLogo_path_4"
          ></path>
          <path
            d="M23.9917 13.166V12.1112C22.6694 12.1112 21.443 11.7212 20.4082 11.0435C21.328 12.0984 22.5736 12.8655 23.9917 13.166Z"
            fill="#25F4EE"
            data-tt="Icons_TikTokLogo_path_5"
          ></path>
          <path
            d="M20.4082 11.0435C19.3989 9.88639 18.7921 8.37762 18.7921 6.72821H17.5273C17.8531 8.53106 18.9262 10.0782 20.4082 11.0435Z"
            fill="#FE2C55"
            data-tt="Icons_TikTokLogo_path_6"
          ></path>
          <path
            d="M8.70654 20.3646C6.51556 20.3646 4.7334 22.1483 4.7334 24.3411C4.7334 25.869 5.60212 27.1988 6.86689 27.8637C6.3942 27.2116 6.11314 26.4124 6.11314 25.543C6.11314 23.3502 7.8953 21.5665 10.0863 21.5665C10.4951 21.5665 10.8911 21.6368 11.2616 21.7519V16.9187C10.8784 16.8676 10.4887 16.8356 10.0863 16.8356C10.016 16.8356 9.95214 16.842 9.88188 16.842V20.55C9.505 20.4349 9.11535 20.3646 8.70654 20.3646Z"
            fill="#FE2C55"
            data-tt="Icons_TikTokLogo_path_7"
          ></path>
          <path
            d="M23.9923 13.166V16.8421C21.5394 16.8421 19.2654 16.0557 17.413 14.726V24.3475C17.413 29.1487 13.5101 33.0613 8.70656 33.0613C6.85413 33.0613 5.12945 32.4731 3.71777 31.4822C5.30831 33.1891 7.57594 34.2632 10.0863 34.2632C14.8835 34.2632 18.7927 30.357 18.7927 25.5494V15.9279C20.6451 17.2576 22.9192 18.044 25.372 18.044V13.3131C24.893 13.3131 24.433 13.2619 23.9923 13.166Z"
            fill="#FE2C55"
            data-tt="Icons_TikTokLogo_path_8"
          ></path>
          <path
            d="M17.413 24.3475V14.7259C19.2654 16.0557 21.5394 16.842 23.9923 16.842V13.166C22.5742 12.8656 21.3286 12.0984 20.4088 11.0435C18.9269 10.0782 17.8601 8.53106 17.5216 6.72821H14.0594L14.0531 25.6964C13.9764 27.8189 12.2262 29.5259 10.0863 29.5259C8.75766 29.5259 7.58872 28.8674 6.86052 27.8701C5.59576 27.1988 4.72703 25.8755 4.72703 24.3475C4.72703 22.1547 6.5092 20.371 8.70017 20.371C9.10899 20.371 9.50502 20.4413 9.87551 20.5564V16.8484C5.17417 16.9507 1.37988 20.8121 1.37988 25.5494C1.37988 27.8381 2.26777 29.9223 3.71778 31.4822C5.12946 32.4731 6.85413 33.0613 8.70656 33.0613C13.5037 33.0613 17.413 29.1487 17.413 24.3475Z"
            fill="white"
            data-tt="Icons_TikTokLogo_path_9"
          ></path>
          <path
            d="M30.0469 13.1788H44.8216L43.4674 17.411H39.6348V33.0548H34.8568V17.411L30.0533 17.4174L30.0469 13.1788Z"
            fill="white"
            data-tt="Icons_TikTokLogo_path_10"
          ></path>
          <path
            d="M69.0312 13.1788H84.1509L82.7967 17.411H78.6256V33.0548H73.8412V17.411L69.0376 17.4174L69.0312 13.1788Z"
            fill="white"
            data-tt="Icons_TikTokLogo_path_11"
          ></path>
          <path
            d="M45.7285 19.5016H50.4618V33.0549H45.7541L45.7285 19.5016Z"
            fill="white"
            data-tt="Icons_TikTokLogo_path_12"
          ></path>
          <path
            d="M52.3462 13.1277H57.0795V22.3848L61.7681 17.7754H67.4148L61.4806 23.5356L68.1238 33.0549H62.9115L58.4784 26.4572L57.0731 27.819V33.0549H52.3398V13.1277H52.3462Z"
            fill="white"
            data-tt="Icons_TikTokLogo_path_13"
          ></path>
          <path
            d="M102.49 13.1277H107.224V22.3848L111.912 17.7754H117.559L111.625 23.5356L118.268 33.0549H113.062L108.629 26.4572L107.224 27.819V33.0549H102.49V13.1277Z"
            fill="white"
            data-tt="Icons_TikTokLogo_path_14"
          ></path>
          <path
            d="M48.0916 17.9544C49.4075 17.9544 50.4742 16.8868 50.4742 15.5698C50.4742 14.2528 49.4075 13.1852 48.0916 13.1852C46.7757 13.1852 45.709 14.2528 45.709 15.5698C45.709 16.8868 46.7757 17.9544 48.0916 17.9544Z"
            fill="white"
            data-tt="Icons_TikTokLogo_path_15"
          ></path>
          <path
            d="M83.5436 24.9421C83.5436 20.6779 86.8332 17.1809 91.0172 16.8549C90.8064 16.8357 90.5189 16.8293 90.3081 16.8293C85.8304 16.8293 82.2021 20.4605 82.2021 24.9421C82.2021 29.4236 85.8304 33.0549 90.3081 33.0549C90.5189 33.0549 90.8064 33.0421 91.0172 33.0293C86.8396 32.7033 83.5436 29.2063 83.5436 24.9421Z"
            fill="#25F4EE"
            data-tt="Icons_TikTokLogo_path_16"
          ></path>
          <path
            d="M92.857 16.8293C92.6398 16.8293 92.3524 16.8421 92.1416 16.8549C96.3192 17.1809 99.6088 20.6779 99.6088 24.9421C99.6088 29.2063 96.3192 32.7033 92.1416 33.0293C92.3524 33.0485 92.6398 33.0549 92.857 33.0549C97.3348 33.0549 100.963 29.4236 100.963 24.9421C100.963 20.4605 97.3348 16.8293 92.857 16.8293Z"
            fill="#FE2C55"
            data-tt="Icons_TikTokLogo_path_17"
          ></path>
          <path
            d="M91.5796 28.8866C89.4014 28.8866 87.6384 27.1221 87.6384 24.9421C87.6384 22.7621 89.4014 20.9976 91.5796 20.9976C93.7578 20.9976 95.5208 22.7621 95.5208 24.9421C95.5208 27.1221 93.7514 28.8866 91.5796 28.8866ZM91.5796 16.8293C87.1018 16.8293 83.4736 20.4605 83.4736 24.9421C83.4736 29.4236 87.1018 33.0549 91.5796 33.0549C96.0574 33.0549 99.6856 29.4236 99.6856 24.9421C99.6856 20.4605 96.0574 16.8293 91.5796 16.8293Z"
            fill="white"
            data-tt="Icons_TikTokLogo_path_18"
          ></path>
        </g>
        <defs data-tt="Icons_TikTokLogo_defs">
          <clipPath id="clip0_212_6970" data-tt="Icons_TikTokLogo_clipPath">
            <rect
              width="118"
              height="42"
              fill="white"
              data-tt="Icons_TikTokLogo_rect"
            ></rect>
          </clipPath>
        </defs>
      </svg>