<svg fill="white" color="inherit" font-size="inherit" viewBox="0 0 48 48" xmlns="http://www.w3.org/2000/svg" width="1em" height="1em"><path d="M22.74 2.22a2 2 0 0 0-2.04-.9l-1.37.23a2 2 0 0 0-1.6 1.55l-.35 1.57c-.14.67-.61 1.2-1.24 1.48-1.3.57-2.53 1.29-3.67 2.12-.55.4-1.25.55-1.9.34l-1.54-.5a2 2 0 0 0-2.14.62l-.9 1.07A2 2 0 0 0 5.76 12l.75 1.43c.32.6.3 1.33 0 1.94a19.36 19.36 0 0 0-1.45 3.98 2.13 2.13 0 0 1-1.24 1.48l-1.5.61a2 2 0 0 0-1.24 1.85v1.4a2 2 0 0 0 1.24 1.84l1.5.61c.62.26 1.07.82 1.23 1.49.34 1.39.83 2.73 1.46 3.98.3.61.31 1.33 0 1.94l-.75 1.42a2 2 0 0 0 .23 2.22l.9 1.06a2 2 0 0 0 2.14.62l1.54-.49c.64-.2 1.35-.07 1.9.34 1.14.83 2.37 1.55 3.67 2.12.63.28 1.1.82 1.24 1.48l.34 1.57a2 2 0 0 0 1.61 1.55l1.37.24a2 2 0 0 0 2.04-.9l.86-1.37c.36-.57 1-.92 1.67-.96 1.45-.1 2.85-.34 4.19-.73a2.13 2.13 0 0 1 1.9.33l1.27.98a2 2 0 0 0 2.22.15l1.2-.7a2 2 0 0 0 .99-2l-.22-1.59c-.1-.67.17-1.34.66-1.81a19.6 19.6 0 0 0 2.74-3.25c.37-.57.99-.94 1.67-.97l1.6-.06a2 2 0 0 0 1.8-1.32l.48-1.3a2 2 0 0 0-.54-2.17l-1.19-1.08a2.13 2.13 0 0 1-.66-1.8 19.74 19.74 0 0 0 0-4.27c-.07-.67.16-1.35.66-1.81l1.2-1.08a2 2 0 0 0 .53-2.16l-.48-1.31a2 2 0 0 0-1.8-1.32l-1.6-.06c-.68-.02-1.3-.4-1.67-.96a19.6 19.6 0 0 0-2.74-3.26 2.13 2.13 0 0 1-.66-1.81l.22-1.6a2 2 0 0 0-.98-2l-1.2-.7a2 2 0 0 0-2.23.16l-1.27.98c-.54.42-1.25.53-1.9.34a19.44 19.44 0 0 0-4.19-.74 2.12 2.12 0 0 1-1.67-.96l-.86-1.36ZM39.1 24a15.1 15.1 0 1 1-30.2 0 15.1 15.1 0 0 1 30.2 0Z"></path></svg>