<svg fill="white" color="inherit" font-size="inherit" viewBox="0 0 48 48" xmlns="http://www.w3.org/2000/svg" width="1em" height="1em"><path d="M21.68 3.18a2 2 0 0 1 2.14.32l21.5 19a2 2 0 0 1-.02 3.02l-21.5 18.5a2 2 0 0 1-3.3-1.52v-9.97c-5.68.28-11.95 1.75-16.09 5.88A2 2 0 0 1 1 37c0-11.68 7.7-21.05 19.5-21.94V5a2 2 0 0 1 1.18-1.82ZM24.5 30.5v7.64l16.46-14.16L24.5 9.44V17a2 2 0 0 1-2.05 2c-8.4-.21-15.62 5.34-17.09 13.66 4.47-2.7 9.8-3.87 14.98-4.13.68-.03 1.22-.04 1.6-.04 1.19 0 2.56.26 2.56 2.01Z"></path></svg>